<svg width="63" height="56" viewBox="0 0 63 56" fill="none" xmlns="http://www.w3.org/2000/svg">
<g clip-path="url(#clip0_9_7)">
<path d="M7.875 16.3333C7.875 15.0957 8.42812 13.9087 9.41269 13.0335C10.3973 12.1583 11.7326 11.6667 13.125 11.6667H49.875C51.2674 11.6667 52.6027 12.1583 53.5873 13.0335C54.5719 13.9087 55.125 15.0957 55.125 16.3333V39.6667C55.125 40.9044 54.5719 42.0913 53.5873 42.9665C52.6027 43.8417 51.2674 44.3333 49.875 44.3333H13.125C11.7326 44.3333 10.3973 43.8417 9.41269 42.9665C8.42812 42.0913 7.875 40.9044 7.875 39.6667V16.3333Z" fill="#262D3A" stroke="#2F424C" stroke-width="2" stroke-linecap="round" stroke-linejoin="round"/>
<path d="M36.75 30.3333L42 35L47.25 30.3333M42 35V21Z" fill="#262D3A"/>
<path d="M36.75 30.3333L42 35M42 35L47.25 30.3333M42 35V21" stroke="#6A9EA7" stroke-width="2" stroke-linecap="round" stroke-linejoin="round"/>
<path d="M16.223 35V20.4545H21.4077C22.5346 20.4545 23.4697 20.6487 24.2131 21.0369C24.9612 21.4252 25.5199 21.9626 25.8892 22.6491C26.2585 23.331 26.4432 24.1193 26.4432 25.0142C26.4432 25.9044 26.2562 26.688 25.8821 27.3651C25.5128 28.0374 24.9541 28.5606 24.206 28.9347C23.4626 29.3087 22.5275 29.4957 21.4006 29.4957H17.473V27.6065H21.2017C21.9119 27.6065 22.4896 27.5047 22.9347 27.3011C23.3845 27.0975 23.7135 26.8016 23.9219 26.4134C24.1302 26.0251 24.2344 25.5587 24.2344 25.0142C24.2344 24.465 24.1278 23.9891 23.9148 23.5866C23.7064 23.1842 23.3774 22.8764 22.9276 22.6634C22.4825 22.4455 21.8977 22.3366 21.1733 22.3366H18.4176V35H16.223ZM23.4034 28.4375L26.9972 35H24.4972L20.9744 28.4375H23.4034Z" fill="#6A9EA7"/>
</g>
<defs>
<clipPath id="clip0_9_7">
<rect width="63" height="56" fill="white"/>
</clipPath>
</defs>
</svg>
